<svg width="1109" height="617" viewBox="0 0 1109 617" fill="none" xmlns="http://www.w3.org/2000/svg">
<path d="M402.441 528.478C406.448 514.206 412.014 500.939 419.137 488.675C426.26 476.41 433.384 465.038 440.507 454.558C447.631 444.077 453.753 434.377 458.873 425.458C463.993 416.538 466.553 408.288 466.553 400.706C466.553 375.732 444.96 356.555 401.774 343.176L398.435 349.197C420.25 356.778 435.499 364.694 444.18 372.945C452.862 381.195 457.203 390.003 457.203 399.368C457.203 406.058 455.534 411.41 452.194 415.423C448.855 419.437 444.626 422.67 439.506 425.123C434.386 427.576 428.709 429.249 422.476 430.141C416.243 431.032 410.455 431.478 405.113 431.478C395.763 431.478 385.078 430.921 373.057 429.806C361.036 428.691 347.235 426.684 331.652 423.785C316.069 420.887 298.149 417.096 277.892 412.413C257.635 407.73 234.595 401.598 208.772 394.017C230.588 365.475 258.637 342.507 292.918 325.114C289.356 319.316 286.797 311.177 285.238 300.697C283.68 290.217 282.901 281.855 282.901 275.611V251.529H381.739C388.862 251.529 392.424 254.65 392.424 260.894V262.901L397.099 264.239C399.325 256.211 401.551 249.41 403.777 243.835C406.003 238.261 408.341 233.132 410.789 228.449C413.238 223.767 416.021 218.973 419.137 214.067C422.254 209.161 425.593 203.363 429.154 196.674H290.247C300.33 191.333 307.961 187.304 313.139 184.587C321.06 180.431 329.123 175.764 337.329 170.585C353.579 160.327 368.605 149.289 382.407 137.471C396.208 125.653 414.583 103.751 414.583 103.751L407.116 96.33C396.876 88.3025 387.638 81.167 379.402 74.9234C371.165 68.6798 363.04 62.2132 355.026 55.5236C347.012 48.834 338.33 41.2525 328.981 32.779C319.631 24.3055 308.723 13.3792 296.257 0C291.805 2.22986 286.463 4.68273 280.23 7.35856C273.996 10.0344 267.43 12.9332 260.529 16.055C253.628 19.1768 246.616 22.2986 239.492 25.4204C232.369 28.5422 225.69 31.664 219.457 34.7858V345.852L190.073 347.19V56.1925L209.44 48.165L205.433 36.1238L69.8648 88.3026L68.5291 100.344L129.301 76.2613V210.053V251.529V373.948L128.633 375.286L55.1726 359.9C48.0491 368.819 41.7048 376.735 36.1396 383.648C30.5744 390.56 24.8979 397.585 19.1101 404.72C9.76056 414.086 4.08394 420.664 2.08047 424.454C0.0769893 428.245 -0.479445 433.039 0.410989 438.837C1.74664 447.757 6.53264 457.679 14.7691 468.606C23.0056 479.532 33.5796 489.566 46.4908 498.709C59.4021 507.851 74.2056 514.987 90.9012 520.115C107.597 525.244 125.517 526.248 144.661 523.126C154.011 521.342 162.247 519.224 169.371 516.771C176.494 514.318 183.284 511.085 189.739 507.071C196.195 503.057 202.762 498.486 209.44 493.357C216.118 488.229 223.687 482.096 232.146 474.961L236.821 472.285C255.075 475.853 272.772 479.42 289.913 482.988C307.054 486.556 322.859 489.789 337.329 492.688C351.798 495.587 364.487 498.151 375.395 500.381C386.302 502.611 394.873 504.172 401.106 505.064L393.092 525.802L402.441 528.478ZM282.901 72.2475L356.362 143.826C347.012 151.408 339.109 157.428 332.654 161.888C326.198 166.348 320.41 170.139 315.29 173.26C310.17 176.382 305.162 179.058 300.264 181.288C295.367 183.518 289.579 185.748 282.901 187.977V72.2475ZM200.758 390.003L146.665 378.631C158.24 370.157 170.372 364.471 183.061 361.572C195.75 358.673 208.104 357.224 220.125 357.224C220.125 360.792 218.122 366.032 214.115 372.945C210.108 379.857 205.656 385.543 200.758 390.003ZM155.346 509.078C139.764 511.308 123.736 510.416 107.263 506.402C90.7899 502.388 75.6526 496.813 61.8508 489.678C48.0491 482.542 36.4735 474.961 27.1239 466.933C17.7744 458.906 12.6544 452.216 11.7639 446.865C10.8735 443.297 11.8752 440.621 14.7691 438.837C17.6631 437.053 21.1136 435.715 25.1206 434.823C29.5727 434.377 38.8109 434.823 52.8352 436.161C66.8595 437.499 83.2212 439.84 101.92 443.185C120.619 446.53 140.543 450.655 161.691 455.561C182.838 460.467 202.984 466.041 222.129 472.285C212.779 480.312 203.207 487.783 193.412 494.695C183.618 501.608 170.929 506.402 155.346 509.078ZM560.716 530.484L576.076 513.091C584.98 503.28 593.773 494.918 602.455 488.005C611.137 481.093 620.152 472.954 629.502 463.588C633.954 459.129 637.961 453.889 641.523 447.868C645.084 441.847 647.311 435.715 648.201 429.472L640.855 426.796C639.519 431.701 637.516 437.053 634.844 442.851C632.173 448.648 629.279 453.108 626.163 456.23C615.478 454 603.791 451.101 591.102 447.534C578.413 443.966 566.726 439.952 556.041 435.492V237.48C556.041 231.237 556.152 224.882 556.375 218.415C556.598 211.948 556.932 205.816 557.377 200.019C570.288 204.924 581.084 212.506 589.766 222.763C598.448 233.021 604.57 244.616 608.131 257.549H612.806C617.704 245.954 623.158 234.247 629.168 222.429C635.178 210.611 640.855 200.688 646.197 192.66C639.964 185.079 631.95 176.828 622.156 167.909C612.361 158.989 601.008 149.847 588.097 140.481L581.853 136.317C565.502 148.732 565.502 148.732 545.69 162.557C525.878 176.382 504.619 189.092 481.913 200.688C486.365 205.147 489.593 210.165 491.596 215.739C493.6 221.314 494.601 229.23 494.601 239.487V431.478C494.601 444.412 493.6 454.335 491.596 461.247C489.593 468.16 486.142 475.184 481.245 482.319C485.252 483.657 491.151 485.33 498.942 487.337C506.733 489.343 514.97 491.573 523.652 494.026L549.697 501.385C558.379 503.838 565.613 505.956 571.401 507.74L555.373 525.802L560.716 530.484ZM724.333 616.111C747.484 600.948 767.519 586.119 784.437 571.625C801.355 557.131 815.268 542.08 826.176 526.471C837.084 510.862 845.209 494.138 850.552 476.299C855.894 458.46 858.566 438.837 858.566 417.43C858.566 412.525 858.343 406.615 857.898 399.703C857.453 392.79 857.007 383.648 856.562 372.276C856.117 360.903 855.672 346.855 855.227 330.131C854.781 313.407 854.559 292.558 854.559 267.584L854.562 264.233C854.589 248.776 854.811 235.845 855.227 225.439C855.672 214.29 856.451 204.924 857.564 197.343C858.677 189.761 860.124 183.518 861.905 178.612C863.686 173.706 866.134 168.801 869.251 163.895C845.654 162.111 824.952 155.421 807.143 143.826L800.034 140.47C795.79 145.164 794.645 145.823 781.432 157.205C768.219 168.588 753.495 181.511 735.686 193.998V119.075C735.686 89.1945 741.029 66.6729 751.714 51.5099C762.399 36.3468 777.091 28.7652 795.79 28.7652C802.914 28.7652 810.148 31.1066 817.494 35.7893C824.841 40.472 830.294 46.3811 833.856 53.5167L841.202 50.1719C834.524 38.1307 827.067 29.3227 818.83 23.7481C810.594 18.1734 802.914 15.386 795.79 15.386C792.228 15.386 788.778 15.832 785.439 16.7239C782.1 17.6159 778.204 19.3998 773.752 22.0756C769.3 24.7514 763.957 28.7653 757.724 34.1169C751.491 39.4686 743.923 46.6041 735.018 55.5236C724.778 65.335 716.542 73.1395 710.309 78.9371C704.076 84.7348 698.956 89.083 694.949 91.9819C690.942 94.8807 687.936 96.776 685.933 97.668C684.597 98.2626 679.332 99.816 670.137 102.328C671.763 119.141 672.799 129.629 673.244 133.792C673.912 140.035 674.246 146.725 674.246 153.861V399.368C674.246 406.95 674.023 412.971 673.578 417.43C673.133 421.89 672.243 425.904 670.907 429.472C669.571 433.039 667.457 436.384 664.563 439.506C661.669 442.628 657.551 446.419 652.208 450.878C658.441 458.46 665.676 467.268 673.912 477.302C682.149 487.337 690.051 497.482 697.62 507.74L678.921 525.133L684.931 530.484L759.728 460.244C749.488 449.54 742.921 440.955 740.027 434.489C737.133 428.022 735.686 420.552 735.686 412.079V200.019C747.262 203.586 759.282 206.708 771.749 209.384C784.215 212.06 795.79 214.513 806.475 216.743C800.688 228.338 797.014 242.498 795.456 259.221C793.898 275.945 793.119 296.349 793.119 320.431C793.119 333.365 793.342 346.298 793.787 359.231C794.232 372.164 794.788 384.317 795.456 395.689C796.124 407.061 796.681 417.319 797.126 426.461C797.571 435.604 797.794 442.628 797.794 447.534C797.794 470.278 796.569 489.789 794.121 506.067C791.672 522.345 787.554 536.617 781.766 548.881C775.978 561.145 768.076 571.96 758.058 581.325C748.041 590.691 735.686 600.056 720.994 609.422L724.333 616.111ZM985.452 530.484C997.919 517.551 1010.27 505.398 1022.52 494.026C1034.76 482.654 1044.89 473.4 1052.9 466.264C1064.48 456.007 1073.61 447.645 1080.28 441.178C1086.96 434.712 1092.08 428.803 1095.64 423.451C1099.21 418.099 1101.43 412.859 1102.32 407.73C1103.21 402.602 1103.66 396.47 1103.66 389.334C1103.66 385.766 1103.21 377.293 1102.32 363.914C1101.43 350.534 1100.54 336.152 1099.65 320.766C1098.76 305.38 1097.87 290.774 1096.98 276.949C1096.09 263.124 1095.64 253.758 1095.64 248.853L1095.65 248.079C1095.69 245.351 1095.91 241.15 1096.31 235.474C1096.76 229.23 1097.54 222.429 1098.65 215.07C1099.76 207.712 1101.1 200.576 1102.66 193.664C1104.21 186.751 1106.33 181.288 1109 177.274C1100.99 175.936 1091.97 173.929 1081.95 171.253C1071.94 168.578 1061.7 165.567 1051.23 162.222C1040.77 158.878 1030.86 155.421 1021.51 151.854C1012.17 148.286 1004.15 144.718 997.473 141.15L990.173 135.684L985.452 140.16C975.658 149.079 964.082 158.766 950.726 169.916C937.369 181.065 922.454 192.66 905.981 204.701C908.653 208.269 910.767 213.175 912.326 219.419C913.884 225.662 915.22 234.359 916.333 245.508C917.446 256.657 918.225 270.259 918.67 286.314C919.115 302.369 919.338 321.769 919.338 344.514C919.338 366.812 919.115 384.763 918.67 398.365C918.225 411.967 917.557 423.228 916.666 432.147C915.776 441.067 914.44 448.537 912.66 454.558C910.879 460.578 908.653 466.933 905.981 473.623C918.893 477.191 933.807 482.096 950.726 488.34C967.644 494.584 982.559 501.05 995.47 507.74L979.442 523.795L985.452 530.484ZM1034.2 452.885C1023.07 446.642 1012.05 440.955 1001.15 435.827C990.238 430.698 981 426.796 973.432 424.12C974.767 415.646 976.325 403.605 978.106 387.996C979.887 372.387 980.778 355.217 980.778 336.486C980.778 326.675 980.666 314.968 980.444 301.366C980.221 287.764 979.887 274.162 979.442 260.559C978.997 246.957 978.329 234.359 977.439 222.763C976.548 211.168 975.435 202.472 974.099 196.674C985.675 202.472 998.141 207.935 1011.5 213.063C1024.85 218.192 1035.32 222.094 1042.89 224.77C1037.1 240.825 1034.2 257.549 1034.2 274.942C1034.2 282.97 1034.65 293.004 1035.54 305.045C1036.43 317.086 1037.32 329.016 1038.21 340.835C1039.1 352.653 1039.99 363.579 1040.88 373.614C1041.77 383.648 1042.22 390.672 1042.22 394.686C1042.22 404.943 1041.66 414.866 1040.55 424.454C1039.43 434.043 1037.32 443.52 1034.2 452.885Z" fill="white" fill-opacity="0.03"/>
</svg>
