<svg width="17" height="15" viewBox="0 0 17 15" fill="none" xmlns="http://www.w3.org/2000/svg">
<path d="M16.896 7.74668C17.0344 7.60855 17.0347 7.3843 16.8966 7.24581C16.8964 7.24561 16.8962 7.24537 16.896 7.24518L10.521 0.870174C10.3803 0.734274 10.1561 0.738192 10.0202 0.878874C9.8876 1.01614 9.8876 1.23372 10.0202 1.37094L15.791 7.14175L0.354255 7.14175C0.158657 7.14175 7.79159e-05 7.30033 7.79073e-05 7.49593C7.78988e-05 7.69152 0.158657 7.8501 0.354255 7.8501L15.791 7.8501L10.0209 13.6202C9.8802 13.7561 9.87628 13.9803 10.0122 14.121C10.1481 14.2617 10.3723 14.2655 10.513 14.1297C10.5159 14.1268 10.5188 14.1239 10.5217 14.121L16.896 7.74668Z" fill="white"/>
</svg>
