<svg width="14" height="17" viewBox="0 0 14 17" fill="none" xmlns="http://www.w3.org/2000/svg">
<path fill-rule="evenodd" clip-rule="evenodd" d="M7.08427 16.4464C7.09311 16.4471 7.10206 16.4475 7.11108 16.4475C7.28882 16.4475 7.43289 16.3034 7.43292 16.1257L7.43292 2.099L12.676 7.34264C12.6838 7.35045 12.692 7.35782 12.7005 7.36473C12.8251 7.46957 13.0113 7.46533 13.131 7.34971C13.2588 7.22622 13.2624 7.02251 13.1389 6.89464L13.131 6.88674L7.34427 1.10003C7.28565 1.03841 7.20285 1 7.11108 1C7.06151 1 7.01456 1.01121 6.97261 1.03123C6.94048 1.04653 6.91035 1.06746 6.88372 1.09403L6.8835 1.09428L6.88314 1.0946L1.09034 6.8874C0.966854 7.01523 0.970414 7.21898 1.09825 7.34247C1.13477 7.37774 1.17756 7.40268 1.22293 7.41729C1.33245 7.45281 1.45748 7.42824 1.54606 7.34267L6.78916 2.09895L6.78916 16.1256C6.78916 16.2812 6.89953 16.411 7.04623 16.4409C7.05866 16.4435 7.07136 16.4453 7.08427 16.4464Z" fill="black"/>
<path d="M7.08427 16.4464L7.1254 15.9481L7.12538 15.9481L7.08427 16.4464ZM7.43292 16.1257L7.93292 16.1257V16.1257H7.43292ZM7.43292 2.099L7.78649 1.74546L6.93292 0.891792V2.099H7.43292ZM12.676 7.34264L12.3224 7.69617L12.3228 7.69655L12.676 7.34264ZM12.7005 7.36473L13.0225 6.98209L13.0156 6.97649L12.7005 7.36473ZM13.131 7.34971L13.4784 7.70936L13.4784 7.70932L13.131 7.34971ZM13.1389 6.89464L13.4987 6.54729L13.4925 6.54109L13.1389 6.89464ZM13.131 6.88674L13.4846 6.53318L13.4846 6.53318L13.131 6.88674ZM7.34427 1.10003L6.98193 1.44479L6.99072 1.45358L7.34427 1.10003ZM6.97261 1.03123L7.18754 1.48268L7.18801 1.48245L6.97261 1.03123ZM6.88372 1.09403L6.53063 0.740008L6.51649 0.754114L6.50351 0.769302L6.88372 1.09403ZM6.8835 1.09428L7.21704 1.46677L7.24197 1.44445L7.2637 1.41901L6.8835 1.09428ZM6.88314 1.0946L6.5496 0.722107L6.53934 0.731301L6.52959 0.741046L6.88314 1.0946ZM1.09034 6.8874L0.736737 6.53379L0.730731 6.54001L1.09034 6.8874ZM1.09825 7.34247L0.750858 7.70208L0.750926 7.70214L1.09825 7.34247ZM1.22293 7.41729L1.37717 6.94167L1.3762 6.94136L1.22293 7.41729ZM1.54606 7.34267L1.89351 7.70234L1.89964 7.6962L1.54606 7.34267ZM6.78916 2.09895H7.28916V0.891738L6.43559 1.74541L6.78916 2.09895ZM7.04623 16.4409L7.14648 15.9511L7.14633 15.9511L7.04623 16.4409ZM7.11108 15.9475C7.11576 15.9475 7.12054 15.9477 7.1254 15.9481L7.04315 16.9447C7.06569 16.9465 7.08835 16.9475 7.11108 16.9475V15.9475ZM6.93292 16.1256C6.93293 16.0273 7.01263 15.9475 7.11108 15.9475V16.9475C7.56501 16.9475 7.93284 16.5795 7.93292 16.1257L6.93292 16.1256ZM6.93292 2.099L6.93292 16.1257H7.93292L7.93292 2.099H6.93292ZM13.0295 6.98911L7.78649 1.74546L7.07934 2.45253L12.3224 7.69617L13.0295 6.98911ZM13.0156 6.97649C13.0203 6.98033 13.0248 6.98441 13.0292 6.98873L12.3228 7.69655C12.3427 7.71649 12.3637 7.73532 12.3854 7.75297L13.0156 6.97649ZM12.7837 6.99006C12.8502 6.92583 12.9531 6.92379 13.0224 6.98215L12.3786 7.7473C12.6971 8.01536 13.1724 8.00482 13.4784 7.70936L12.7837 6.99006ZM12.7792 7.24194C12.7109 7.17122 12.7128 7.05847 12.7836 6.9901L13.4784 7.70932C13.8048 7.39397 13.8138 6.87379 13.4986 6.54734L12.7792 7.24194ZM12.7775 7.24029L12.7854 7.24819L13.4925 6.54109L13.4846 6.53318L12.7775 7.24029ZM6.99072 1.45358L12.7775 7.24029L13.4846 6.53318L7.69783 0.746475L6.99072 1.45358ZM7.11108 1.5C7.06032 1.5 7.01386 1.47813 6.98204 1.44468L7.70651 0.755376C7.55743 0.598695 7.34537 0.5 7.11108 0.5V1.5ZM7.18801 1.48245C7.16413 1.49386 7.13762 1.5 7.11108 1.5V0.5C6.9854 0.5 6.86499 0.52856 6.75722 0.580007L7.18801 1.48245ZM7.2368 1.44805C7.22269 1.46212 7.20594 1.47392 7.18754 1.48268L6.75769 0.579782C6.67502 0.619139 6.59801 0.672802 6.53063 0.740008L7.2368 1.44805ZM7.2637 1.41901L7.26392 1.41875L6.50351 0.769302L6.5033 0.769558L7.2637 1.41901ZM7.21668 1.46709L7.21704 1.46677L6.54996 0.721789L6.5496 0.722107L7.21668 1.46709ZM1.4439 7.24095L7.2367 1.44815L6.52959 0.741046L0.736789 6.53385L1.4439 7.24095ZM1.44564 6.98286C1.51633 7.05115 1.5184 7.16394 1.44995 7.23479L0.730731 6.54001C0.415308 6.86653 0.424495 7.38681 0.750858 7.70208L1.44564 6.98286ZM1.3762 6.94136C1.40193 6.94965 1.42593 6.96383 1.44557 6.98279L0.750926 7.70214C0.843611 7.79165 0.953184 7.85571 1.06966 7.89322L1.3762 6.94136ZM1.19867 6.98306C1.24826 6.93516 1.31794 6.92247 1.37717 6.94167L1.0687 7.89291C1.34696 7.98315 1.6667 7.92132 1.89345 7.70228L1.19867 6.98306ZM6.43559 1.74541L1.19249 6.98914L1.89964 7.6962L7.14274 2.45248L6.43559 1.74541ZM7.28916 16.1256L7.28916 2.09895H6.28916L6.28916 16.1256H7.28916ZM7.14633 15.9511C7.22773 15.9677 7.28916 16.0389 7.28916 16.1256H6.28916C6.28916 16.5234 6.57134 16.8542 6.94612 16.9308L7.14633 15.9511ZM7.12538 15.9481C7.1324 15.9486 7.13946 15.9496 7.14648 15.9511L6.94597 16.9308C6.97787 16.9373 7.01032 16.942 7.04317 16.9447L7.12538 15.9481Z" fill="black"/>
</svg>
