<svg width="96" height="54" viewBox="0 0 96 54" fill="none" xmlns="http://www.w3.org/2000/svg">
<path d="M34.8371 45.7474C35.184 44.512 35.6657 43.3635 36.2824 42.3019C36.899 41.2402 37.5157 40.2558 38.1323 39.3485C38.7489 38.4413 39.2789 37.6016 39.7221 36.8295C40.1653 36.0574 40.3869 35.3432 40.3869 34.6869C40.3869 32.525 38.5177 30.865 34.7793 29.7068L34.4903 30.228C36.3787 30.8843 37.6987 31.5695 38.4502 32.2837C39.2018 32.9979 39.5775 33.7604 39.5775 34.5711C39.5775 35.1502 39.433 35.6135 39.144 35.9609C38.8549 36.3084 38.4888 36.5882 38.0456 36.8006C37.6024 37.0129 37.111 37.1577 36.5714 37.2349C36.0319 37.3121 35.5309 37.3507 35.0684 37.3507C34.259 37.3507 33.3341 37.3024 32.2935 37.2059C31.2529 37.1094 30.0582 36.9357 28.7093 36.6848C27.3604 36.4338 25.8091 36.1057 24.0556 35.7003C22.302 35.295 20.3076 34.7641 18.0723 34.1079C19.9607 31.6371 22.3887 29.6489 25.3563 28.1433C25.048 27.6415 24.8264 26.9369 24.6915 26.0297C24.5566 25.1224 24.4892 24.3986 24.4892 23.8581V21.7734H33.045C33.6617 21.7734 33.97 22.0437 33.97 22.5841V22.7579L34.3746 22.8737C34.5673 22.1788 34.76 21.5901 34.9527 21.1075C35.1454 20.6249 35.3478 20.181 35.5598 19.7756C35.7717 19.3703 36.0126 18.9552 36.2824 18.5306C36.5522 18.1059 36.8412 17.6041 37.1495 17.025H25.1251C25.9979 16.5626 26.6585 16.2138 27.1067 15.9787C27.7924 15.6189 28.4904 15.2149 29.2007 14.7666C30.6074 13.8786 31.9081 12.9231 33.1028 11.9001C34.2976 10.8771 35.8882 8.98116 35.8882 8.98116L35.2418 8.33876C34.3554 7.64386 33.5557 7.02618 32.8427 6.4857C32.1297 5.94523 31.4263 5.38545 30.7326 4.80637C30.0389 4.22729 29.2874 3.571 28.478 2.8375C27.6687 2.104 26.7245 1.15816 25.6454 0C25.26 0.193027 24.7975 0.405358 24.2579 0.63699C23.7184 0.868623 23.1499 1.11955 22.5525 1.38979C21.9552 1.66003 21.3482 1.93027 20.7315 2.20051C20.1149 2.47074 19.5368 2.74098 18.9972 3.01122V29.9385L16.4536 30.0543V4.86428L18.1301 4.16938L17.7832 3.12703L6.04781 7.64387L5.93218 8.68621L11.1929 6.60152V18.1831V21.7734V32.3706L11.1351 32.4864L4.77599 31.1545C4.15935 31.9266 3.61015 32.6119 3.1284 33.2103C2.64666 33.8087 2.15528 34.4167 1.65426 35.0344C0.844918 35.8451 0.353524 36.4145 0.180095 36.7427C0.00666454 37.0708 -0.0415029 37.4858 0.0355771 37.9877C0.151197 38.7598 0.565495 39.6188 1.27848 40.5646C1.99147 41.5104 2.9068 42.3791 4.02446 43.1705C5.14211 43.9619 6.42357 44.5796 7.86881 45.0235C9.31406 45.4675 10.8653 45.5544 12.5225 45.2841C13.3319 45.1297 14.0448 44.9463 14.6615 44.734C15.2781 44.5217 15.8659 44.2418 16.4247 43.8943C16.9835 43.5469 17.552 43.1512 18.1301 42.7072C18.7082 42.2632 19.3633 41.7324 20.0956 41.1147L20.5003 40.8831C22.0804 41.1919 23.6124 41.5008 25.0962 41.8096C26.58 42.1185 27.9481 42.3984 29.2007 42.6493C30.4532 42.9002 31.5516 43.1222 32.4958 43.3152C33.4401 43.5083 34.182 43.6434 34.7215 43.7206L34.0278 45.5157L34.8371 45.7474ZM24.4892 6.25407L30.8483 12.4502C30.0389 13.1065 29.3548 13.6277 28.796 14.0138C28.2372 14.3998 27.7362 14.728 27.2929 14.9982C26.8497 15.2684 26.4162 15.5001 25.9922 15.6931C25.5683 15.8861 25.0673 16.0791 24.4892 16.2722V6.25407ZM17.3785 33.7604L12.6959 32.776C13.698 32.0425 14.7482 31.5503 15.8466 31.2993C16.945 31.0484 18.0144 30.9229 19.055 30.9229C19.055 31.2317 18.8816 31.6854 18.5347 32.2837C18.1879 32.8821 17.8025 33.3743 17.3785 33.7604ZM13.4475 44.068C12.0986 44.2611 10.7111 44.1839 9.28516 43.8364C7.85918 43.489 6.54882 43.0064 5.35409 42.3887C4.15935 41.771 3.15731 41.1147 2.34797 40.4198C1.53863 39.7249 1.09542 39.1459 1.01834 38.6826C0.941259 38.3737 1.02797 38.1421 1.27848 37.9877C1.52899 37.8333 1.82769 37.7175 2.17455 37.6402C2.55995 37.6016 3.35964 37.6402 4.57365 37.7561C5.78766 37.8719 7.204 38.0746 8.82267 38.3641C10.4413 38.6536 12.166 39.0107 13.9967 39.4354C15.8273 39.8601 17.5712 40.3426 19.2285 40.8831C18.4191 41.578 17.5905 42.2246 16.7426 42.823C15.8948 43.4214 14.7964 43.8364 13.4475 44.068ZM48.5381 45.9211L49.8677 44.4155C50.6385 43.5662 51.3997 42.8423 52.1512 42.2439C52.9027 41.6456 53.6832 40.941 54.4925 40.1303C54.8779 39.7442 55.2248 39.2906 55.5331 38.7695C55.8414 38.2483 56.0341 37.7174 56.1112 37.177L55.4753 36.9454C55.3596 37.37 55.1862 37.8333 54.955 38.3351C54.7237 38.837 54.4732 39.2231 54.2034 39.4933C53.2785 39.3003 52.2668 39.0493 51.1684 38.7405C50.07 38.4317 49.0584 38.0842 48.1334 37.6981V20.5574C48.1334 20.0169 48.143 19.4668 48.1623 18.907C48.1816 18.3472 48.2105 17.8164 48.249 17.3145C49.3667 17.7392 50.3013 18.3955 51.0528 19.2834C51.8043 20.1713 52.3343 21.1751 52.6426 22.2946H53.0473C53.4712 21.2909 53.9433 20.2775 54.4636 19.2544C54.9839 18.2314 55.4753 17.3724 55.9377 16.6775C55.3982 16.0212 54.7045 15.307 53.8566 14.5349C53.0087 13.7628 52.0259 12.9714 50.9083 12.1607L50.3678 11.8002C48.9524 12.8749 48.9524 12.8749 47.2374 14.0717C45.5223 15.2684 43.682 16.3687 41.7165 17.3724C42.1019 17.7585 42.3813 18.1928 42.5548 18.6754C42.7282 19.1579 42.8149 19.8432 42.8149 20.7311V37.3507C42.8149 38.4703 42.7282 39.3292 42.5548 39.9276C42.3813 40.526 42.0826 41.134 41.6587 41.7517C42.0056 41.8675 42.5162 42.0123 43.1907 42.186C43.8651 42.3598 44.5781 42.5528 45.3296 42.7651L47.5842 43.4021C48.3357 43.6144 48.962 43.7978 49.463 43.9522L48.0756 45.5157L48.5381 45.9211ZM62.7015 53.3333C64.7056 52.0208 66.4399 50.7371 67.9044 49.4824C69.3689 48.2278 70.5733 46.9248 71.5175 45.5737C72.4617 44.2225 73.1651 42.7748 73.6276 41.2305C74.0901 39.6863 74.3213 37.9877 74.3213 36.1346C74.3213 35.71 74.302 35.1985 74.2635 34.6001C74.2249 34.0017 74.1864 33.2103 74.1479 32.2258C74.1093 31.2414 74.0708 30.0253 74.0322 28.5776C73.9937 27.1299 73.9744 25.3251 73.9744 23.1632L73.9747 22.8732C73.9771 21.5352 73.9963 20.4158 74.0322 19.515C74.0708 18.5499 74.1382 17.7392 74.2346 17.0829C74.3309 16.4266 74.4562 15.8861 74.6103 15.4615C74.7645 15.0368 74.9765 14.6121 75.2462 14.1875C73.2036 14.0331 71.4115 13.454 69.8699 12.4502L69.2545 12.1597C68.8872 12.566 68.7881 12.6231 67.6442 13.6084C66.5004 14.5937 65.2259 15.7124 63.6843 16.7933V10.3076C63.6843 7.72108 64.1468 5.77151 65.0717 4.45892C65.9967 3.14634 67.2685 2.49004 68.8872 2.49004C69.5038 2.49004 70.1301 2.69273 70.766 3.09808C71.4019 3.50344 71.874 4.01496 72.1823 4.63264L72.8182 4.34311C72.2401 3.30076 71.5946 2.53831 70.8816 2.05574C70.1686 1.57317 69.5038 1.33188 68.8872 1.33188C68.5788 1.33188 68.2802 1.37049 67.9911 1.4477C67.7021 1.52491 67.3648 1.67933 66.9794 1.91096C66.594 2.1426 66.1316 2.49005 65.592 2.95332C65.0524 3.41658 64.3973 4.03426 63.6265 4.80637C62.74 5.65569 62.0271 6.33128 61.4875 6.83315C60.9479 7.33502 60.5047 7.71143 60.1579 7.96236C59.811 8.2133 59.5509 8.37737 59.3774 8.45458C59.2618 8.50605 58.806 8.64052 58.0101 8.85797C58.1508 10.3134 58.2405 11.2213 58.279 11.5816C58.3368 12.1221 58.3658 12.7012 58.3658 13.3189V34.5711C58.3658 35.2274 58.3465 35.7486 58.3079 36.1346C58.2694 36.5207 58.1923 36.8681 58.0767 37.177C57.9611 37.4858 57.778 37.7754 57.5275 38.0456C57.277 38.3158 56.9205 38.644 56.458 39.03C56.9976 39.6863 57.6239 40.4488 58.3369 41.3174C59.0499 42.186 59.7339 43.0643 60.3891 43.9522L58.7704 45.4578L59.2907 45.9211L65.7654 39.8408C64.879 38.9142 64.3105 38.1711 64.06 37.6113C63.8095 37.0515 63.6843 36.4049 63.6843 35.6714V17.3145C64.6863 17.6234 65.7269 17.8936 66.806 18.1252C67.8851 18.3569 68.8872 18.5692 69.8121 18.7622C69.3111 19.766 68.9931 20.9917 68.8583 22.4394C68.7234 23.8871 68.6559 25.6533 68.6559 27.738C68.6559 28.8575 68.6752 29.9771 68.7137 31.0966C68.7523 32.2162 68.8004 33.2682 68.8583 34.2526C68.9161 35.2371 68.9642 36.125 69.0028 36.9164C69.0413 37.7078 69.0606 38.3158 69.0606 38.7405C69.0606 40.7094 68.9546 42.3984 68.7426 43.8075C68.5307 45.2165 68.1742 46.4519 67.6731 47.5136C67.1721 48.5752 66.4881 49.5114 65.6209 50.3221C64.7538 51.1328 63.6843 51.9435 62.4124 52.7543L62.7015 53.3333ZM85.3052 45.9211C86.3843 44.8015 87.4538 43.7495 88.5136 42.7651C89.5735 41.7807 90.4503 40.9796 91.144 40.3619C92.146 39.474 92.9361 38.7502 93.5142 38.1904C94.0923 37.6306 94.5355 37.1191 94.8438 36.6558C95.1521 36.1925 95.3448 35.7389 95.4219 35.295C95.499 34.851 95.5375 34.3202 95.5375 33.7025C95.5375 33.3937 95.499 32.6602 95.4219 31.502C95.3448 30.3438 95.2677 29.0988 95.1907 27.7669C95.1136 26.435 95.0365 25.1707 94.9594 23.9739C94.8823 22.7772 94.8438 21.9665 94.8438 21.5418L94.8443 21.4748C94.8475 21.2387 94.8666 20.875 94.9016 20.3836C94.9402 19.8432 95.0076 19.2544 95.104 18.6174C95.2003 17.9805 95.3159 17.3628 95.4508 16.7644C95.5857 16.166 95.7688 15.6931 96 15.3456C95.3063 15.2298 94.5259 15.0561 93.6587 14.8245C92.7916 14.5928 91.9051 14.3322 90.9994 14.0427C90.0938 13.7532 89.2362 13.454 88.4269 13.1451C87.6176 12.8363 86.9238 12.5274 86.3457 12.2186L85.7138 11.7454L85.3052 12.1329C84.4573 12.905 83.4553 13.7435 82.2991 14.7087C81.1429 15.6738 79.8518 16.6775 78.4258 17.7199C78.657 18.0287 78.8401 18.4534 78.975 18.9938C79.1099 19.5343 79.2255 20.2871 79.3218 21.2523C79.4182 22.2174 79.4856 23.3949 79.5242 24.7847C79.5627 26.1744 79.582 27.8538 79.582 29.8227C79.582 31.7529 79.5627 33.3068 79.5242 34.4843C79.4856 35.6617 79.4278 36.6365 79.3507 37.4086C79.2737 38.1807 79.1581 38.8274 79.0039 39.3485C78.8497 39.8697 78.657 40.4198 78.4258 40.9989C79.5434 41.3078 80.8345 41.7324 82.2991 42.2729C83.7636 42.8134 85.0547 43.3731 86.1723 43.9522L84.7849 45.342L85.3052 45.9211ZM89.5253 39.2038C88.5618 38.6633 87.6079 38.1711 86.6637 37.7271C85.7195 37.2831 84.9198 36.9454 84.2646 36.7137C84.3802 35.9802 84.5151 34.9379 84.6693 33.5867C84.8234 32.2355 84.9005 30.7492 84.9005 29.1278C84.9005 28.2784 84.8909 27.2651 84.8716 26.0876C84.8523 24.9101 84.8234 23.7327 84.7849 22.5552C84.7463 21.3777 84.6885 20.2871 84.6115 19.2834C84.5344 18.2796 84.438 17.5268 84.3224 17.025C85.3244 17.5268 86.4036 17.9998 87.5598 18.4437C88.716 18.8877 89.6216 19.2255 90.2768 19.4571C89.7758 20.8469 89.5253 22.2946 89.5253 23.8002C89.5253 24.4951 89.5638 25.3637 89.6409 26.4061C89.718 27.4484 89.7951 28.4811 89.8722 29.5042C89.9492 30.5272 90.0263 31.473 90.1034 32.3417C90.1805 33.2103 90.219 33.8183 90.219 34.1658C90.219 35.0537 90.1708 35.9127 90.0745 36.7427C89.9781 37.5727 89.7951 38.393 89.5253 39.2038Z" fill="white"/>
</svg>
